<?xml version="1.0" encoding="iso-8859-1"?>
<!-- Generator: Adobe Illustrator 18.0.0, SVG Export Plug-In . SVG Version: 6.00 Build 0)  -->
<!DOCTYPE svg PUBLIC "-//W3C//DTD SVG 1.1//EN" "http://www.w3.org/Graphics/SVG/1.1/DTD/svg11.dtd">
<svg version="1.1" id="Capa_1" xmlns="http://www.w3.org/2000/svg" xmlns:xlink="http://www.w3.org/1999/xlink" x="0px" y="0px"
	 viewBox="0 0 455.354 455.354" style="enable-background:new 0 0 455.354 455.354;" xml:space="preserve">
<g>
	<polygon style="fill:#F4CA60;" points="194.517,92.559 227.676,35.126 260.835,92.559 	"/>
	<polygon style="fill:#F4CA60;" points="322.214,21.272 270.287,138.605 259.19,105.272 227.678,138.605 196.167,105.272 
		185.07,138.605 133.143,21.272 98.876,179.98 356.476,179.98 	"/>
	<g>
		<path style="fill:#E5CF98;" d="M138.023,236.984c0,24.442-19.834,44.276-44.276,44.276c-7.842,0-15.201-2.051-21.571-5.622
			c-13.536-7.552-22.705-22.053-22.705-38.654c0-14.477,6.949-27.338,17.735-35.42c7.383-5.55,16.576-8.856,26.541-8.856
			C118.189,192.708,138.023,212.542,138.023,236.984z"/>
		<path style="fill:#E5CF98;" d="M405.883,236.984c0,24.442-19.834,44.276-44.276,44.276c-1.81,0-3.595-0.12-5.356-0.338
			c-21.909-2.63-38.919-21.305-38.919-43.938c0-24.442,19.834-44.276,44.276-44.276c0.41,0,0.796,0,1.182,0.024
			C386.701,193.359,405.883,212.952,405.883,236.984z"/>
	</g>
	<path style="fill:#FCE7A7;" d="M260.661,351.53v25.45c0,1.84-0.15,3.65-0.44,5.41c-0.58,3.56-1.74,6.93-3.39,10.01
		c-5.5,10.4-16.46,17.51-29.08,17.51c-12.64,0-23.58-7.11-29.1-17.51c-1.64-3.07-2.8-6.42-3.39-9.97c-0.29-1.77-0.44-3.59-0.44-5.45
		v-25.45H260.661z"/>
	<path style="fill:#E5CF98;" d="M260.661,351.53v25.45c0,1.84-0.15,3.65-0.44,5.41c-10.42,2.59-21.32,3.96-32.54,3.96
		c-11.18,0-22.03-1.36-32.42-3.92c-0.29-1.77-0.44-3.59-0.44-5.45v-25.45H260.661z"/>
	<path style="fill:#FCE7A7;" d="M362.441,196v45.6c0,23.58-6.07,45.75-16.71,65.03c-22.94,41.56-67.2,69.72-118.05,69.72
		c-50.86,0-95.12-28.16-118.06-69.72c-10.64-19.28-16.71-41.45-16.71-65.03V196c0-14.33,2.24-22.073,6.38-35.023
		c6.74-21.05,18.5-32.28,33.89-47.4c7.6-7.48,16.07-14.06,25.26-19.58c14.21-8.52,30.12-14.5,47.11-17.3
		c7.2-1.19,14.59-1.81,22.13-1.81c7.81,0,15.46,0.66,22.91,1.94c17.12,2.93,33.14,9.09,47.4,17.84c9.03,5.52,17.35,12.09,24.8,19.51
		l0.18,0.18c15.64,15.64,27.46,27.53,33.92,49.31C360.501,175.827,362.441,182.66,362.441,196z"/>
	<path style="fill:#EA535E;" d="M227.673,315.906c-11.57,0-21.716-7.405-25.245-18.425c-0.505-1.578,0.364-3.267,1.942-3.772
		c1.58-0.506,3.267,0.363,3.772,1.942c2.73,8.526,10.579,14.255,19.53,14.255s16.8-5.729,19.53-14.255
		c0.506-1.578,2.196-2.448,3.772-1.942c1.578,0.505,2.447,2.194,1.942,3.772C249.389,308.501,239.244,315.906,227.673,315.906z"/>
	<polygon style="fill:#E5CF98;" points="196.764,270 227.677,257 258.59,270 	"/>
	<g>
		<path style="fill:#FFFFFF;" d="M165.189,265.72c-14.095,0-25.563-11.468-25.563-25.563c0-14.095,11.468-25.563,25.563-25.563
			s25.563,11.468,25.563,25.563C190.751,254.252,179.284,265.72,165.189,265.72z"/>
		<path style="fill:#FFFFFF;" d="M290.161,265.72c-14.095,0-25.563-11.468-25.563-25.563c0-14.095,11.468-25.563,25.563-25.563
			c14.095,0,25.563,11.468,25.563,25.563C315.724,254.252,304.256,265.72,290.161,265.72z"/>
		<path style="fill:#4D4D4D;" d="M173.937,240.157c-4.832,0-8.748-3.917-8.748-8.748c0-3.019,1.529-5.681,3.856-7.253
			c-1.239-0.298-2.526-0.472-3.856-0.472c-9.098,0-16.474,7.375-16.474,16.474s7.376,16.474,16.474,16.474
			s16.474-7.375,16.474-16.474c0-1.33-0.175-2.617-0.472-3.856C179.618,238.628,176.956,240.157,173.937,240.157z"/>
		<path style="fill:#4D4D4D;" d="M298.909,240.157c-4.832,0-8.748-3.917-8.748-8.748c0-3.019,1.529-5.681,3.856-7.253
			c-1.239-0.298-2.526-0.472-3.856-0.472c-9.098,0-16.474,7.375-16.474,16.474s7.376,16.474,16.474,16.474
			c9.098,0,16.474-7.375,16.474-16.474c0-1.33-0.175-2.617-0.472-3.856C304.59,238.628,301.929,240.157,298.909,240.157z"/>
	</g>
	<path style="fill:#FBB03B;" d="M292.5,439.929L292.5,439.929c48.49-24.465,79.072-74.15,79.072-128.462v-47.846
		c0-9.434-10.498-15.076-18.366-9.871l-23.191,15.342c-22.016,14.564-49.569,18.014-74.496,9.326l0,0
		c-18.024-6.282-37.643-6.282-55.667,0l0,0c-24.927,8.688-52.48,5.238-74.496-9.326l-23.191-15.342
		c-7.868-5.205-18.366,0.437-18.366,9.871v47.846c0,54.312,30.582,103.997,79.072,128.462l0,0
		C203.632,460.496,251.737,460.496,292.5,439.929z"/>
	<path style="fill:#FCE7A7;" d="M227.685,294L227.685,294c-18.569,0-33.623,15.053-33.623,33.623v0
		c0,5.731,4.646,10.377,10.377,10.377h46.491c5.731,0,10.377-4.646,10.377-10.377v0C261.307,309.053,246.254,294,227.685,294z"/>
	<path style="fill:#EA535E;" d="M228.585,321.862c-4.174,0-8.348-0.972-12.32-2.915c-1.488-0.728-2.104-2.525-1.377-4.013
		c0.729-1.488,2.524-2.104,4.014-1.376c6.336,3.099,13.032,3.099,19.366,0c1.487-0.728,3.285-0.112,4.013,1.376
		c0.729,1.488,0.112,3.285-1.376,4.013C236.932,320.89,232.758,321.862,228.585,321.862z"/>
	<path style="fill:#E5CF98;" d="M355.309,157.61v8.43H100.874v-11.12c6.657-21.05,18.273-39.86,33.474-54.98l8.939,24.73
		l16.011-44.31c14.035-8.52,29.75-14.5,46.531-17.3l22.263,61.61l22.224-61.48c16.91,2.93,32.733,9.09,46.818,17.84l15.774,43.64
		l8.721-24.13l0.178,0.18C337.253,116.36,348.928,135.83,355.309,157.61z"/>
	<path style="fill:#E29A3B;" d="M99.293,158.708L76.53,190.917c-6.15,8.702-7.328,20.169-2.476,29.657
		c3.87,7.568,11.015,13.46,20.222,15.302l0,0c5.618,1.124,11.03-2.687,11.853-8.357c3.128-21.547,13.274-68.811,42.098-68.811"/>
	<path style="fill:#E29A3B;" d="M356.894,158.708l22.763,32.209c6.15,8.702,7.328,20.169,2.476,29.657
		c-3.87,7.568-11.015,13.46-20.222,15.302l0,0c-5.618,1.124-11.03-2.687-11.853-8.357c-3.128-21.547-13.274-68.811-42.098-68.811"/>
	<path style="fill:#E29A3B;" d="M356.476,157.61v1.1h-257.6v-3.79c17.37-54.33,68.28-93.67,128.39-93.67
		c37.22,0,70.9,15.09,95.29,39.47C338.196,116.36,350.016,135.83,356.476,157.61z"/>
	<polygon style="fill:#FCD983;" points="356.477,0 313.543,117.333 270.61,0 227.676,117.333 184.742,0 141.809,117.333 98.875,0 
		98.875,158.708 356.477,158.708 	"/>
	<g>
		<g>
			<path style="fill:#E29A3B;" d="M195.591,240.685h-59.358c-4.971,0-9-4.029-9-9V219c0-4.971,4.029-9,9-9h59.358
				c4.971,0,9,4.029,9,9v12.685C204.591,236.656,200.562,240.685,195.591,240.685z"/>
		</g>
		<g>
			<path style="fill:#E29A3B;" d="M319.119,240.685h-59.358c-4.971,0-9-4.029-9-9V219c0-4.971,4.029-9,9-9h59.358
				c4.971,0,9,4.029,9,9v12.685C328.118,236.656,324.089,240.685,319.119,240.685z"/>
		</g>
	</g>
</g>
<g>
</g>
<g>
</g>
<g>
</g>
<g>
</g>
<g>
</g>
<g>
</g>
<g>
</g>
<g>
</g>
<g>
</g>
<g>
</g>
<g>
</g>
<g>
</g>
<g>
</g>
<g>
</g>
<g>
</g>
</svg>
